<svg xmlns="http://www.w3.org/2000/svg" fill="#FFFFFF" viewBox="0 0 143 41" class="index-module-scss-module__qDvdOW__logoSvg"><path d="M14.023 40.5H.5V.5h7.362v26.367a4.885 4.885 0 1 0 4.884-4.987c-1.06 0-2.09.35-2.93.998V.5h4.733a9.087 9.087 0 0 1 8.99 9.182 9.24 9.24 0 0 1-3.027 6.868 12.94 12.94 0 0 1 6.133 11.058c.074 7.046-5.577 12.817-12.623 12.891zM139.349 28.738v-1.45a4.15 4.15 0 0 1-3.669 1.817 4.64 4.64 0 0 1-3.727-1.736 6.92 6.92 0 0 1-1.453-4.588 6.95 6.95 0 0 1 1.453-4.61 4.67 4.67 0 0 1 3.753-1.738 4.23 4.23 0 0 1 3.401 1.426v-5.451h3.378v16.331h-3.134zm-.877-8.407a2.32 2.32 0 0 0-1.892-.931 2.38 2.38 0 0 0-1.937.92 3.8 3.8 0 0 0-.744 2.46c-.044.882.21 1.753.721 2.473a2.447 2.447 0 0 0 3.852-.011c.521-.712.784-1.58.743-2.461a3.8 3.8 0 0 0-.743-2.45m-12.106 7.211a4.25 4.25 0 0 1-3.715 1.61 4.76 4.76 0 0 1-3.03-.896 3.08 3.08 0 0 1-1.137-2.576 3.36 3.36 0 0 1 1.261-2.806 8.34 8.34 0 0 1 3.784-1.403l2.68-.46v-.138a1.53 1.53 0 0 0-.517-1.242 2.17 2.17 0 0 0-1.441-.437 3.6 3.6 0 0 0-1.352.254c-.346.13-.672.308-.968.528q-.661.53-1.261 1.13l-2.14-1.976a7.28 7.28 0 0 1 5.677-2.76 5.7 5.7 0 0 1 3.857 1.174c.909.817 1.401 2 1.34 3.22v7.982h-3.041l.004-1.2zm-.158-4.14-1.936.368a5.9 5.9 0 0 0-1.936.632 1.14 1.14 0 0 0-.608 1 .89.89 0 0 0 .428.772c.368.213.791.314 1.215.288a3.1 3.1 0 0 0 2.038-.659 2.36 2.36 0 0 0 .8-1.943v-.457zm-13.638 2.806a3.9 3.9 0 0 0 1.644-.333 7.9 7.9 0 0 0 1.712-1.185l1.847 2.164a7.36 7.36 0 0 1-5.293 2.278 6.14 6.14 0 0 1-4.583-1.729 6.26 6.26 0 0 1-1.701-4.6 6.67 6.67 0 0 1 1.621-4.634 5.6 5.6 0 0 1 4.392-1.806 5.27 5.27 0 0 1 4.121 1.6 6.45 6.45 0 0 1 1.442 4.473q0 .62-.046 1.31h-8.265a2.863 2.863 0 0 0 3.108 2.46zm1.982-4.876a2.222 2.222 0 0 0-2.409-2.278 2.563 2.563 0 0 0-2.613 2.278zm-10.168-1.564a2.1 2.1 0 0 0-1.779.886 4 4 0 0 0-.653 2.426v5.658h-3.379V16.777h3.131v1.702a3.09 3.09 0 0 1 2.929-1.91 6.3 6.3 0 0 1 1.914.414l-.63 3.035a7.5 7.5 0 0 0-1.532-.252zm-7.81 1.84a4.03 4.03 0 0 1 .777 2.53 4.35 4.35 0 0 1-1.34 3.37 5.17 5.17 0 0 1-3.636 1.23H85.41V12.407H91.9a5.36 5.36 0 0 1 3.513 1.13 3.76 3.76 0 0 1 1.374 3.104 3.396 3.396 0 0 1-2.455 3.52c.882.23 1.667.736 2.238 1.446h.005M91 15.236H89.03v3.588h1.938c.6.037 1.193-.138 1.677-.495.402-.338.622-.845.597-1.368q.005-1.724-2.248-1.724zm2.016 7.014a3.12 3.12 0 0 0-1.993-.553h-1.99v4.209h1.982q2.68 0 2.68-2.092c.033-.6-.22-1.18-.683-1.563zm-11.47 3.53c.24.18.536.266.834.242a7.4 7.4 0 0 0 1.329-.188l.383 2.76a9.1 9.1 0 0 1-2.68.436 3.68 3.68 0 0 1-2.691-.828 3.64 3.64 0 0 1-.823-2.645v-6.21H75.85v-2.572h2.05V13.28h3.378v3.495h2.635v2.576h-2.635v5.59c-.033.305.065.61.27.84m-6.227 2.956h-3.037V27.54a4.25 4.25 0 0 1-3.716 1.61 4.76 4.76 0 0 1-3.03-.896 3.08 3.08 0 0 1-1.137-2.577 3.36 3.36 0 0 1 1.261-2.805 8.3 8.3 0 0 1 3.785-1.403l2.678-.465v-.138a1.53 1.53 0 0 0-.518-1.242 2.17 2.17 0 0 0-1.44-.437 3.6 3.6 0 0 0-1.353.254c-.346.13-.672.308-.968.528q-.66.53-1.26 1.13l-2.14-1.976a7.28 7.28 0 0 1 5.675-2.76 5.7 5.7 0 0 1 3.857 1.174c.91.817 1.401 2 1.34 3.22l.004 7.982zm-3.2-5.336-1.936.368a5.9 5.9 0 0 0-1.936.632 1.14 1.14 0 0 0-.608 1 .89.89 0 0 0 .428.772c.368.214.79.315 1.217.29a3.1 3.1 0 0 0 2.037-.659 2.37 2.37 0 0 0 .8-1.943l-.001-.459zm-13.634 2.806a3.9 3.9 0 0 0 1.643-.333 8 8 0 0 0 1.708-1.185l1.847 2.164a7.36 7.36 0 0 1-5.293 2.278 6.14 6.14 0 0 1-4.58-1.729 6.27 6.27 0 0 1-1.7-4.6 6.67 6.67 0 0 1 1.621-4.634 5.6 5.6 0 0 1 4.392-1.806 5.27 5.27 0 0 1 4.122 1.6 6.45 6.45 0 0 1 1.44 4.473q0 .62-.044 1.31h-8.266a2.863 2.863 0 0 0 3.108 2.46zm1.981-4.876a2.22 2.22 0 0 0-2.41-2.278 2.56 2.56 0 0 0-2.612 2.278zm-14.29 7.751a4.1 4.1 0 0 1-3.648-1.773v1.426h-3.131V12.407h3.379v5.474a4.2 4.2 0 0 1 3.422-1.472 4.64 4.64 0 0 1 3.727 1.736 6.92 6.92 0 0 1 1.453 4.589 6.95 6.95 0 0 1-1.453 4.61 4.8 4.8 0 0 1-3.75 1.738zm1.081-8.821a2.447 2.447 0 0 0-3.851.011 3.87 3.87 0 0 0-.744 2.46 3.8 3.8 0 0 0 .744 2.447 2.32 2.32 0 0 0 1.89.932 2.37 2.37 0 0 0 1.937-.92 3.8 3.8 0 0 0 .744-2.46c.043-.88-.21-1.75-.72-2.469z"></path></svg>
