<?xml version="1.0" encoding="UTF-8"?>
<svg id="Calque_1" data-name="Calque 1" xmlns="http://www.w3.org/2000/svg" viewBox="0 0 1080 1080">
  <defs>
    <style>
      .cls-1 {
        fill: #fff;
      }
    </style>
  </defs>
  <g>
    <path class="cls-1" d="M386.25,555.89c0,23.19-10.08,43.06-24.51,51.6-.78.46-1.68.68-2.58.68h-26.42c-.91,0-1.79-.22-2.59-.68-8.05-4.77-14.76-13.1-19.1-23.54-.22-.53-1-.48-1.13.09-2.36,9.7-5.93,17.52-10.22,22.4-.98,1.1-2.38,1.73-3.86,1.73h-12.73c-1.5,0-2.9-.63-3.88-1.75-5.41-6.2-9.68-17.17-11.84-30.6-.11-.7-1.11-.66-1.18.04-1.37,12.74-4.04,23.26-7.44,29.58-.91,1.67-2.64,2.74-4.54,2.74h-5.87c-1.9,0-3.62-1.03-4.53-2.7-3.03-5.6-5.49-14.5-6.94-25.32-.09-.72-1.13-.68-1.2.04-.92,10.36-2.42,18.94-4.29,24.57-.68,2.06-2.66,3.42-4.84,3.42h-.44c-2.27,0-4.25-1.36-4.93-3.44-3.18-9.63-5.3-27.88-5.3-48.84-.02-19.78,1.87-37.14,4.75-47.13.63-2.17,2.66-3.64,4.91-3.64h1.46c2.27,0,4.3,1.49,4.93,3.66,1.61,5.59,2.9,13.49,3.73,22.8.05.72,1.11.74,1.2.04,1.31-9.7,3.42-17.87,6.02-23.48.87-1.84,2.68-3.02,4.69-3.02h7.43c2.01,0,3.82,1.16,4.67,2.98,2.97,6.44,5.3,16.21,6.56,27.83.07.7,1.07.72,1.18.04,1.96-12.2,5.67-22.4,10.38-28.8.96-1.31,2.49-2.04,4.12-2.04h15.18c1.63,0,3.16.74,4.12,2.04,3.6,4.9,6.65,12.04,8.72,20.58.13.57.91.63,1.13.09,3.86-9.28,9.57-16.88,16.44-21.81.85-.61,1.88-.9,2.94-.9h31.03c1.05,0,2.09.29,2.94.92,12.97,9.33,21.83,28.14,21.83,49.86"/>
    <path class="cls-1" d="M459.45,603.49c-8.54,0-16-1.94-22.39-5.82-6.38-3.88-11.35-9.32-14.88-16.3-3.54-6.99-5.31-15.06-5.31-24.2s1.73-16.91,5.18-24.07c3.45-7.16,8.56-12.83,15.34-17.02,6.77-4.18,15.03-6.28,24.78-6.28,10.61,0,19.41,2.55,26.4,7.64,6.99,5.09,11.52,12.12,13.59,21.09h-18.51c-1.38-4.23-3.88-7.53-7.51-9.9-3.62-2.37-8.28-3.56-13.98-3.56-6.04,0-11.17,1.29-15.4,3.88-4.23,2.59-7.44,6.28-9.64,11.06-2.2,4.79-3.3,10.55-3.3,17.28s1.1,12.32,3.3,17.02c2.2,4.7,5.35,8.28,9.45,10.74,4.1,2.46,8.91,3.69,14.43,3.69,7.77,0,13.72-1.98,17.86-5.95,4.14-3.97,6.77-9.23,7.89-15.79h-28.86v-13.98h45.94v48.92h-15.27l-1.29-11.91c-2.93,4.32-6.6,7.64-11,9.96-4.4,2.33-10.01,3.49-16.82,3.49"/>
    <path class="cls-1" d="M513.81,601.94v-64.19h16.44v9.58c2.24-3.62,5.09-6.38,8.54-8.28,3.45-1.9,7.29-2.85,11.52-2.85v17.34h-4.4c-5.26,0-9.19,1.25-11.78,3.75-2.59,2.5-3.88,6.69-3.88,12.55v32.09h-16.44Z"/>
    <path class="cls-1" d="M585.76,589.13c3.45,0,6.45-.88,8.99-2.65,2.54-1.77,4.55-4.14,6.02-7.12,1.47-2.98,2.2-6.23,2.2-9.77,0-4.05-.8-7.5-2.39-10.35-1.6-2.85-3.69-5-6.28-6.47-2.59-1.47-5.44-2.2-8.54-2.2-3.37,0-6.32.82-8.87,2.46-2.55,1.64-4.53,3.9-5.95,6.79-1.42,2.89-2.13,6.23-2.13,10.03s.75,7.16,2.27,10.09c1.51,2.93,3.56,5.2,6.15,6.79,2.59,1.6,5.44,2.39,8.54,2.39M585.5,603.49c-6.47,0-12.23-1.4-17.28-4.21-5.05-2.8-8.99-6.75-11.84-11.84-2.85-5.09-4.27-10.95-4.27-17.6,0-6.99,1.53-13.01,4.59-18.05,3.06-5.05,7.16-8.91,12.29-11.58,5.13-2.67,10.81-4.01,17.02-4.01s12.25,1.4,17.34,4.21c5.09,2.8,9.12,6.71,12.1,11.71,2.98,5,4.46,10.91,4.46,17.73s-1.47,12.25-4.4,17.34c-2.93,5.09-6.97,9.08-12.1,11.97-5.13,2.89-11.11,4.33-17.92,4.33"/>
    <path class="cls-1" d="M658.49,589.13c3.45,0,6.45-.88,8.99-2.65,2.54-1.77,4.55-4.14,6.02-7.12,1.47-2.98,2.2-6.23,2.2-9.77,0-4.05-.8-7.5-2.39-10.35-1.6-2.85-3.69-5-6.28-6.47-2.59-1.47-5.44-2.2-8.54-2.2-3.37,0-6.32.82-8.86,2.46-2.55,1.64-4.53,3.9-5.95,6.79-1.42,2.89-2.13,6.23-2.13,10.03s.75,7.16,2.27,10.09c1.51,2.93,3.56,5.2,6.15,6.79,2.59,1.6,5.44,2.39,8.54,2.39M658.23,603.49c-6.47,0-12.23-1.4-17.28-4.21-5.05-2.8-8.99-6.75-11.84-11.84-2.85-5.09-4.27-10.95-4.27-17.6,0-6.99,1.53-13.01,4.59-18.05,3.06-5.05,7.16-8.91,12.29-11.58,5.13-2.67,10.81-4.01,17.02-4.01s12.25,1.4,17.34,4.21c5.09,2.8,9.12,6.71,12.1,11.71,2.98,5,4.46,10.91,4.46,17.73s-1.47,12.25-4.4,17.34c-2.93,5.09-6.97,9.08-12.1,11.97-5.13,2.89-11.11,4.33-17.92,4.33"/>
  </g>
  <polygon class="cls-1" points="714.66 601.94 690.58 537.75 708.19 537.75 724.75 587.06 741.19 537.75 758.66 537.75 734.58 601.94 714.66 601.94"/>
  <g>
    <path class="cls-1" d="M773.41,563.76h30.93c-.09-4.31-1.66-7.72-4.72-10.22-3.06-2.5-6.66-3.75-10.81-3.75-3.54,0-6.82,1.1-9.84,3.3-3.02,2.2-4.88,5.76-5.57,10.68M789.33,603.49c-6.73,0-12.53-1.47-17.41-4.4-4.88-2.93-8.65-6.94-11.32-12.04-2.68-5.09-4.01-10.83-4.01-17.21,0-6.82,1.38-12.72,4.14-17.73,2.76-5,6.6-8.91,11.52-11.71,4.92-2.8,10.61-4.21,17.08-4.21s11.97,1.38,16.76,4.14c4.79,2.76,8.54,6.56,11.26,11.39,2.72,4.83,4.08,10.4,4.08,16.69,0,1.12-.04,2.22-.13,3.3-.09,1.08-.22,2.09-.39,3.04h-47.62c.26,3.02,1.06,5.67,2.39,7.96,1.34,2.29,3.15,4.06,5.44,5.31,2.29,1.25,4.9,1.88,7.83,1.88s5.63-.65,7.83-1.94c2.2-1.29,3.95-3.28,5.24-5.95h17.73c-1.21,3.8-3.15,7.33-5.82,10.61-2.67,3.28-6.06,5.91-10.16,7.89-4.1,1.98-8.91,2.98-14.43,2.98"/>
    <path class="cls-1" d="M827.63,601.94v-64.19h16.44v9.58c2.24-3.62,5.09-6.38,8.54-8.28,3.45-1.9,7.29-2.85,11.52-2.85v17.34h-4.4c-5.26,0-9.19,1.25-11.78,3.75-2.59,2.5-3.88,6.69-3.88,12.55v32.09h-16.44Z"/>
  </g>
</svg>