<svg width="98" height="23" xmlns="http://www.w3.org/2000/svg" xmlns:xlink="http://www.w3.org/1999/xlink"><defs><path id="a" d="M0 .08h6.042v22.53H0z"/><path id="c" d="M0 .08h6.042v22.53H0z"/><path id="e" d="M0 .08h6.042v22.53H0z"/></defs><g fill="none" fill-rule="evenodd"><g transform="translate(8.186 .115)"><mask id="b" fill="#fff"><use xlink:href="#a"/></mask><path d="M3.021 22.61C1.445 22.61 0 21.313 0 19.713V2.977C0 1.377 1.445.08 3.021.08c1.576 0 3.021 1.297 3.021 2.897v16.736c0 1.6-1.445 2.897-3.02 2.897" fill="#FFF" fill-rule="nonzero" opacity=".303" mask="url(#b)"/></g><g transform="translate(16.373 .115)"><mask id="d" fill="#fff"><use xlink:href="#c"/></mask><path d="M3.021 22.61C1.445 22.61 0 21.313 0 19.713V2.977C0 1.377 1.445.08 3.021.08c1.576 0 3.021 1.297 3.021 2.897v16.736c0 1.6-1.445 2.897-3.02 2.897" fill="#FFF" fill-rule="nonzero" opacity=".303" mask="url(#d)"/></g><g transform="translate(0 .115)"><mask id="f" fill="#fff"><use xlink:href="#e"/></mask><path d="M3.021 22.61C1.445 22.61 0 21.313 0 19.713V2.977C0 1.377 1.445.08 3.021.08c1.576 0 3.021 1.297 3.021 2.897v16.736c0 1.6-1.445 2.897-3.02 2.897" fill="#FFF" fill-rule="nonzero" mask="url(#f)"/></g><path d="M11.208 18.034c-1.576 0-3.022-1.278-3.022-2.854V7.706c0-1.576 1.446-2.659 3.022-2.659 1.576 0 3.02 1.083 3.02 2.659v7.474c0 1.576-1.444 2.854-3.02 2.854M19.394 15.847c-1.576 0-3.021-1.277-3.021-2.853v-2.26c0-1.576 1.445-2.854 3.021-2.854 1.576 0 3.021 1.278 3.021 2.854v2.26c0 1.576-1.445 2.853-3.02 2.853M44.675 8.626h-.656c-.97 0-1.78.153-2.426.457a3.705 3.705 0 00-1.542 1.313v8.791h-3.91v-13.9h3.768v2.455c.266-.818.69-1.456 1.27-1.913.58-.456 1.356-.685 2.326-.685.437 0 .828.048 1.17.143v3.34zM56.235 12.251a7.69 7.69 0 00-.171-1.64 4.19 4.19 0 00-.557-1.385 2.882 2.882 0 00-1.013-.957c-.419-.237-.923-.356-1.513-.356-.61 0-1.118.119-1.527.356-.41.239-.742.557-.999.957-.257.4-.442.861-.556 1.384a7.678 7.678 0 00-.172 1.641c0 .571.057 1.114.172 1.627.114.514.3.97.556 1.37.257.4.59.719 1 .956.408.238.917.357 1.526.357.59 0 1.094-.119 1.513-.357a2.875 2.875 0 001.013-.956c.257-.4.443-.856.557-1.37a7.494 7.494 0 00.17-1.627m3.911 0c0 1.009-.157 1.951-.47 2.826a6.628 6.628 0 01-1.385 2.298 6.368 6.368 0 01-2.24 1.54c-.885.372-1.909.558-3.069.558s-2.183-.186-3.068-.557a6.363 6.363 0 01-2.24-1.541 6.621 6.621 0 01-1.385-2.298 8.303 8.303 0 01-.471-2.826c0-1.008.157-1.95.471-2.825a6.627 6.627 0 011.384-2.298 6.53 6.53 0 012.24-1.556c.886-.38 1.908-.57 3.07-.57 1.16 0 2.183.19 3.068.57.884.381 1.63.9 2.24 1.556a6.633 6.633 0 011.384 2.298c.314.875.471 1.817.471 2.825M70.8 16.278c-.462.093-.94.14-1.435.14-.705 0-1.176-.19-1.413-.57-.239-.38-.357-.895-.357-1.542V8.341h3.327V5.287h-3.327V1.69h-3.91v3.596h-2.087V8.34h2.086v6.08c0 .723.086 1.389.257 1.998.172.609.443 1.141.814 1.598.37.457.846.813 1.427 1.07.58.257 1.289.386 2.126.386a10.51 10.51 0 002.785-.375l-.294-2.82zM82.967 12.251a7.69 7.69 0 00-.171-1.64 4.19 4.19 0 00-.557-1.385 2.883 2.883 0 00-1.013-.957c-.419-.237-.923-.356-1.513-.356-.609 0-1.118.119-1.527.356-.41.239-.742.557-.999.957-.257.4-.442.861-.556 1.384a7.678 7.678 0 00-.172 1.641c0 .571.057 1.114.172 1.627.114.514.3.97.556 1.37.257.4.59.719 1 .956.408.238.917.357 1.526.357.59 0 1.094-.119 1.513-.357a2.876 2.876 0 001.013-.956c.257-.4.442-.856.557-1.37a7.493 7.493 0 00.171-1.627m3.91 0c0 1.009-.157 1.951-.47 2.826a6.63 6.63 0 01-1.385 2.298 6.37 6.37 0 01-2.24 1.54c-.885.372-1.909.558-3.069.558s-2.183-.186-3.068-.557a6.363 6.363 0 01-2.24-1.541 6.624 6.624 0 01-1.385-2.298 8.303 8.303 0 01-.471-2.826c0-1.008.157-1.95.47-2.825a6.63 6.63 0 011.385-2.298 6.53 6.53 0 012.24-1.556c.886-.38 1.908-.57 3.07-.57 1.16 0 2.183.19 3.067.57.885.381 1.632.9 2.241 1.556a6.636 6.636 0 011.384 2.298c.314.875.471 1.817.471 2.825M97.704 8.626h-.656c-.97 0-1.78.153-2.426.457a3.705 3.705 0 00-1.541 1.313v8.791h-3.91v-13.9h3.767v2.455c.266-.818.69-1.456 1.27-1.913.58-.456 1.356-.685 2.326-.685.438 0 .828.048 1.17.143v3.34z" fill="#FFF" fill-rule="nonzero"/></g></svg>