<?xml version="1.0" encoding="UTF-8"?>
<svg width="221px" height="52px" viewBox="0 0 221 52" version="1.1" xmlns="http://www.w3.org/2000/svg" xmlns:xlink="http://www.w3.org/1999/xlink">
    <title>B3B59B6A-93C4-47B3-840C-244FCCEAEB39</title>
    <defs>
        <polygon id="path-1" points="0 0 35.2898488 0 35.2898488 43.2429625 0 43.2429625"></polygon>
    </defs>
    <g id="Samiso_website" stroke="none" stroke-width="1" fill="none" fill-rule="evenodd">
        <g id="Shamiso_website_Landing_Page" transform="translate(-72.000000, -19.000000)">
            <g id="Group-18" transform="translate(72.000000, 19.000000)">
                <polygon id="Fill-1" fill="#FFFFFF" points="0 52 41.6207566 52 41.6207566 46.8093362 0 46.8093362"></polygon>
                <polygon id="Fill-2" fill="#FFFFFF" points="5.0497394 45.8930989 36.5718273 45.8930989 36.5718273 38.5640093 5.0497394 38.5640093"></polygon>
                <polygon id="Fill-3" fill="#FFFFFF" points="6.27379591 37.4945943 35.3469607 37.4945943 35.3469607 36.4263918 6.27379591 36.4263918"></polygon>
                <g id="Group-6" transform="translate(13.252052, 0.000000)">
                    <mask id="mask-2" fill="white">
                        <use xlink:href="#path-1"></use>
                    </mask>
                    <g id="Clip-5"></g>
                    <path d="M29.1185302,12.8947762 L26.4893605,-4.04162878e-05 L26.0883625,0.081600485 C26.092413,0.0989794887 26.0968685,0.115146004 26.1001089,0.132525008 C27.5279048,7.13626351 23.7560934,13.9896534 17.4288311,16.7112862 L17.4308563,16.7213903 L0,24.2072951 L0.256800736,25.467475 L22.1861255,17.9730828 C22.1861255,17.9730828 26.886308,16.4057391 29.1185302,12.8947762 L29.1185302,12.8947762 Z M0.549245739,26.9026574 L0.695468241,27.6176215 L0.731517555,27.7962615 L1.43103628,31.224371 L20.0389635,31.3173285 C27.0762758,31.1815298 33.4266258,36.0634132 34.8803448,43.1912297 C34.8831802,43.2086087 34.8856105,43.2255835 34.8888508,43.2429625 L35.2898488,43.1617258 L30.9076293,21.6695564 L30.87158,21.4917248 L30.1352019,17.8825503 C28.7252281,18.5243609 26.4221225,19.3892695 22.7325359,20.3822977 L0.549245739,26.9026574 Z" id="Fill-4" fill="#FFFFFF" mask="url(#mask-2)"></path>
                </g>
                <path d="M13.1097181,25.6040416 L12.8589931,24.3733657 L4.43763014,27.8843286 L4.56805575,28.5229059 L13.1097181,25.6040416 Z M4.77827591,29.5547338 L5.13147819,31.289805 L14.2584356,31.2392846 L13.3989227,27.0210367 L4.77827591,29.5547338 Z" id="Fill-7" fill="#FFFFFF"></path>
                <path d="M62.4211707,32.9116702 C64.9401672,32.9116702 66.7527591,31.5007376 66.7527591,29.3311913 L66.7527591,29.2948166 C66.7527591,27.3600889 65.448098,26.3290694 62.6204545,25.7143377 C59.8296705,25.1177933 59.1767324,24.4484995 59.1767324,23.2546024 L59.1767324,23.2190361 C59.1767324,22.0797009 60.2282382,21.1747802 61.8771906,21.1747802 C63.1822568,21.1747802 64.3601378,21.5914722 65.5388288,22.5497423 L66.3720136,21.4463777 C65.0855796,20.4153582 63.7622862,19.8911589 61.91405,19.8911589 C59.5036065,19.8911589 57.744886,21.3558452 57.744886,23.3451349 L57.744886,23.3811054 C57.744886,25.4609276 59.0864066,26.4014146 62.0047809,27.0347378 C64.6679746,27.5945034 65.3026856,28.2637971 65.3026856,29.4399111 L65.3026856,29.4754774 C65.3026856,30.7235324 64.1790811,31.6280489 62.4758522,31.6280489 C60.7175368,31.6280489 59.4489249,31.0306962 58.1256316,29.8376074 L57.2377653,30.88641 C58.7603425,32.2423765 60.4092949,32.9116702 62.4211707,32.9116702 L62.4211707,32.9116702 Z M69.6711334,32.7306052 L71.1021697,32.7306052 L71.1021697,27.0347378 L78.4246361,27.0347378 L78.4246361,32.7306052 L79.8560775,32.7306052 L79.8560775,20.0722239 L78.4246361,20.0722239 L78.4246361,25.6965545 L71.1021697,25.6965545 L71.1021697,20.0722239 L69.6711334,20.0722239 L69.6711334,32.7306052 Z M82.3572518,32.7306052 L83.8251475,32.7306052 L85.3294976,29.3853491 L92.2347641,29.3853491 L93.7204819,32.7306052 L95.2608813,32.7306052 L89.4796243,19.9816914 L88.1385088,19.9816914 L82.3572518,32.7306052 Z M85.8917049,28.1017278 L88.7910419,21.6452258 L91.6725568,28.1017278 L85.8917049,28.1017278 Z M97.7620556,32.7306052 L99.1578527,32.7306052 L99.1578527,22.4951804 L103.779051,29.2588461 L103.85196,29.2588461 L108.473158,22.4773972 L108.473158,32.7306052 L109.905004,32.7306052 L109.905004,20.0722239 L108.455336,20.0722239 L103.833732,26.9801758 L99.2117242,20.0722239 L97.7620556,20.0722239 L97.7620556,32.7306052 Z M113.620514,32.7306052 L115.05236,32.7306052 L115.05236,20.0718197 L113.620514,20.0718197 L113.620514,32.7306052 Z M123.11647,32.9116702 C125.635467,32.9116702 127.448059,31.5007376 127.448059,29.3311913 L127.448059,29.2948166 C127.448059,27.3600889 126.143398,26.3290694 123.315754,25.7143377 C120.52497,25.1177933 119.872437,24.4484995 119.872437,23.2546024 L119.872437,23.2190361 C119.872437,22.0797009 120.923538,21.1747802 122.5733,21.1747802 C123.877961,21.1747802 125.055437,21.5914722 126.234128,22.5497423 L127.067313,21.4463777 C125.780879,20.4153582 124.457586,19.8911589 122.60935,19.8911589 C120.198906,19.8911589 118.440591,21.3558452 118.440591,23.3451349 L118.440591,23.3811054 C118.440591,25.4609276 119.781706,26.4014146 122.70008,27.0347378 C125.364489,27.5945034 125.99839,28.2637971 125.99839,29.4399111 L125.99839,29.4754774 C125.99839,30.7235324 124.875191,31.6280489 123.171152,31.6280489 C121.412836,31.6280489 120.144225,31.0306962 118.820931,29.8376074 L117.933065,30.88641 C119.455642,32.2423765 121.105,32.9116702 123.11647,32.9116702 L123.11647,32.9116702 Z M136.256243,32.9476407 C140.116355,32.9476407 142.744715,29.891361 142.744715,26.4014146 L142.744715,26.3654441 C142.744715,22.8750935 140.153214,19.8551884 136.293102,19.8551884 C132.43218,19.8551884 129.804226,22.9106598 129.804226,26.4014146 L129.804226,26.4373851 C129.804226,29.9281398 132.396131,32.9476407 136.256243,32.9476407 L136.256243,32.9476407 Z M136.293102,31.6280489 C133.39255,31.6280489 131.290349,29.2766293 131.290349,26.4014146 L131.290349,26.3654441 C131.290349,23.4902294 133.356501,21.1747802 136.256243,21.1747802 C139.155985,21.1747802 141.258187,23.5261999 141.258187,26.4014146 L141.258187,26.4373851 C141.258187,29.3125998 139.192439,31.6280489 136.293102,31.6280489 L136.293102,31.6280489 Z M151.208203,32.7306052 L152.60319,32.7306052 L152.60319,22.4951804 L157.224793,29.2588461 L157.297296,29.2588461 L161.9189,22.4773972 L161.9189,32.7306052 L163.350746,32.7306052 L163.350746,20.0722239 L161.900672,20.0722239 L157.279474,26.9801758 L152.658276,20.0722239 L151.208203,20.0722239 L151.208203,32.7306052 Z M172.014328,32.9294534 C175.185858,32.9294534 177.306286,31.012913 177.306286,27.3241184 L177.306286,20.0722239 L175.87444,20.0722239 L175.87444,27.4324341 C175.87444,30.1993331 174.387912,31.6094574 172.050377,31.6094574 C169.621707,31.6094574 168.171228,30.072426 168.171228,27.3419016 L168.171228,20.0722239 L166.740192,20.0722239 L166.740192,27.4324341 C166.740192,31.012913 168.878848,32.9294534 172.014328,32.9294534 L172.014328,32.9294534 Z M185.044332,32.9116702 C187.563329,32.9116702 189.375921,31.5007376 189.375921,29.3311913 L189.375921,29.2948166 C189.375921,27.3600889 188.071665,26.3290694 185.243616,25.7143377 C182.452832,25.1177933 181.800299,24.4484995 181.800299,23.2546024 L181.800299,23.2190361 C181.800299,22.0797009 182.8514,21.1747802 184.500352,21.1747802 C185.805824,21.1747802 186.983705,21.5914722 188.161991,22.5497423 L188.995175,21.4463777 C187.708741,20.4153582 186.385448,19.8911589 184.537212,19.8911589 C182.126768,19.8911589 180.368453,21.3558452 180.368453,23.3451349 L180.368453,23.3811054 C180.368453,25.4609276 181.709568,26.4014146 184.627943,27.0347378 C187.292352,27.5945034 187.926252,28.2637971 187.926252,29.4399111 L187.926252,29.4754774 C187.926252,30.7235324 186.802243,31.6280489 185.099014,31.6280489 C183.340699,31.6280489 182.072087,31.0306962 180.749198,29.8376074 L179.861332,30.88641 C181.383504,32.2423765 183.032862,32.9116702 185.044332,32.9116702 L185.044332,32.9116702 Z M192.421075,32.7306052 L193.852922,32.7306052 L193.852922,20.0718197 L192.421075,20.0718197 L192.421075,32.7306052 Z M203.367511,32.9476407 C205.668996,32.9476407 207.11907,32.0617157 208.441958,30.7235324 L207.49941,29.8008285 C206.285075,30.9587552 205.143243,31.6280489 203.40356,31.6280489 C200.612371,31.6280489 198.491942,29.3311913 198.491942,26.4014146 L198.491942,26.3654441 C198.491942,23.4534505 200.594549,21.1747802 203.40356,21.1747802 C205.125016,21.1747802 206.321934,21.898636 207.390857,22.9106598 L208.369454,21.8626655 C207.100842,20.6687683 205.723273,19.8551884 203.421382,19.8551884 C199.68805,19.8551884 197.006224,22.8213398 197.006224,26.4014146 L197.006224,26.4373851 C197.006224,30.072426 199.706682,32.9476407 203.367511,32.9476407 L203.367511,32.9476407 Z" id="Fill-8" fill="#FFFFFF"></path>
                <path d="M64.7493083,51.7585531 L73.8734304,51.7585531 L73.8734304,50.4757401 L66.1600922,50.4757401 L66.1600922,46.110781 L72.9807036,46.110781 L72.9807036,44.8279681 L66.1600922,44.8279681 L66.1600922,40.5701122 L73.7843197,40.5701122 L73.7843197,39.2872992 L64.7493083,39.2872992 L64.7493083,51.7585531 Z M76.7128203,51.7585531 L78.0875548,51.7585531 L78.0875548,41.532424 L86.1577407,51.7585531 L87.2825604,51.7585531 L87.2825604,39.2872992 L85.9078258,39.2872992 L85.9078258,49.281843 L78.0336834,39.2872992 L76.7128203,39.2872992 L76.7128203,51.7585531 Z M94.1213989,51.7585531 L95.5500049,51.7585531 L95.5500049,40.5878953 L99.745497,40.5878953 L99.745497,39.2872992 L89.9250966,39.2872992 L89.9250966,40.5878953 L94.1213989,40.5878953 L94.1213989,51.7585531 Z M102.387628,51.7585531 L111.51175,51.7585531 L111.51175,50.4757401 L103.798412,50.4757401 L103.798412,46.110781 L110.619023,46.110781 L110.619023,44.8279681 L103.798412,44.8279681 L103.798412,40.5701122 L111.42264,40.5701122 L111.42264,39.2872992 L102.387628,39.2872992 L102.387628,51.7585531 Z M114.35114,51.7585531 L115.761924,51.7585531 L115.761924,46.9126402 L119.332831,46.9126402 L122.9568,51.7585531 L124.688788,51.7585531 L120.850548,46.6628675 C122.814628,46.3063959 124.242829,45.0955239 124.242829,43.0290391 L124.242829,42.9930686 C124.242829,42.0125695 123.885576,41.1399818 123.278814,40.5341417 C122.492615,39.7504698 121.260862,39.2872992 119.725323,39.2872992 L114.35114,39.2872992 L114.35114,51.7585531 Z M115.761924,45.6476104 L115.761924,40.5878953 L119.617986,40.5878953 C121.636342,40.5878953 122.814628,41.5142366 122.814628,43.0460139 L122.814628,43.0819844 C122.814628,44.6852986 121.475133,45.6476104 119.600163,45.6476104 L115.761924,45.6476104 Z M130.438856,51.7585531 L131.866652,51.7585531 L131.866652,40.5878953 L136.062954,40.5878953 L136.062954,39.2872992 L126.242553,39.2872992 L126.242553,40.5878953 L130.438856,40.5878953 L130.438856,51.7585531 Z M136.027715,51.7585531 L137.473738,51.7585531 L138.955405,48.463009 L145.758194,48.463009 L147.22285,51.7585531 L148.740566,51.7585531 L143.044775,39.1983833 L141.723101,39.1983833 L136.027715,51.7585531 Z M139.509106,47.1979792 L142.366318,40.837668 L145.204898,47.1979792 L139.509106,47.1979792 Z M151.329231,51.7585531 L152.740015,51.7585531 L152.740015,39.2872992 L151.329231,39.2872992 L151.329231,51.7585531 Z M156.400033,51.7585531 L157.774768,51.7585531 L157.774768,41.532424 L165.845359,51.7585531 L166.969773,51.7585531 L166.969773,39.2872992 L165.595039,39.2872992 L165.595039,49.281843 L157.720896,39.2872992 L156.400033,39.2872992 L156.400033,51.7585531 Z M170.505846,51.7585531 L171.880581,51.7585531 L171.880581,41.6742851 L176.433731,48.3381227 L176.505019,48.3381227 L181.058574,41.6569061 L181.058574,51.7585531 L182.468143,51.7585531 L182.468143,39.2872992 L181.040347,39.2872992 L176.487197,46.0929979 L171.933642,39.2872992 L170.505846,39.2872992 L170.505846,51.7585531 Z M186.004216,51.7585531 L195.127933,51.7585531 L195.127933,50.4757401 L187.415,50.4757401 L187.415,46.110781 L194.235612,46.110781 L194.235612,44.8279681 L187.415,44.8279681 L187.415,40.5701122 L195.038823,40.5701122 L195.038823,39.2872992 L186.004216,39.2872992 L186.004216,51.7585531 Z M197.966918,51.7585531 L199.341653,51.7585531 L199.341653,41.532424 L207.412649,51.7585531 L208.537468,51.7585531 L208.537468,39.2872992 L207.162734,39.2872992 L207.162734,49.281843 L199.288186,39.2872992 L197.966918,39.2872992 L197.966918,51.7585531 Z M215.375902,51.7585531 L216.804103,51.7585531 L216.804103,40.5878953 L221,40.5878953 L221,39.2872992 L211.180005,39.2872992 L211.180005,40.5878953 L215.375902,40.5878953 L215.375902,51.7585531 Z" id="Fill-10" fill="#FFFFFF"></path>
                <path d="M61.1168336,51.7029403 L61.1168336,51.2551278 L60.0912508,50.7959988 L60.0912508,48.6895019 L61.1168336,48.2364353 L61.1168336,47.7663939 L57.210546,49.5301607 L57.210546,49.9387693 L61.1168336,51.7029403 Z M59.6983538,50.6250379 L57.720097,49.7399212 L59.6983538,48.8612711 L59.6983538,50.6250379 Z M61.1168336,47.0037385 L61.1168336,46.5777508 L57.936798,46.5777508 L61.1168336,44.0784076 L61.1168336,43.7304234 L57.2380893,43.7304234 L57.2380893,44.156411 L60.3468364,44.156411 L57.2380893,46.5939173 L57.2380893,47.0037385 L61.1168336,47.0037385 Z M61.1168336,42.6355461 L61.1168336,41.2917046 C61.1168336,40.0759826 60.2686621,39.2353238 59.1778665,39.2353238 L59.1661201,39.2353238 C58.0749195,39.2353238 57.2380893,40.0759826 57.2380893,41.2917046 L57.2380893,42.6355461 L61.1168336,42.6355461 Z M60.7117851,42.1990502 L57.6427328,42.1990502 L57.6427328,41.2917046 C57.6427328,40.3140346 58.3187587,39.6883904 59.1778665,39.6883904 L59.1888028,39.6883904 C60.0475056,39.6883904 60.7117851,40.3140346 60.7117851,41.2917046 L60.7117851,42.1990502 Z" id="Fill-12" fill="#FFFFFF"></path>
                <polygon id="Fill-15" fill="#00AEEF" points="110.258247 26.2414873 110.741875 26.2414873 110.741875 25.7589168 110.258247 25.7589168"></polygon>
                <path d="M216.186404,32.919228 C217.481344,32.919228 218.53123,31.872042 218.53123,30.5795292 C218.53123,29.2874204 217.481344,28.2402344 216.186404,28.2402344 C214.891464,28.2402344 213.841578,29.2874204 213.841578,30.5795292 C213.841578,31.872042 214.891464,32.919228 216.186404,32.919228" id="Fill-16" fill="#BE9518"></path>
            </g>
        </g>
    </g>
</svg>